<?xml version="1.0" standalone="no"?>
<!DOCTYPE svg PUBLIC "-//W3C//DTD SVG 20010904//EN"
 "http://www.w3.org/TR/2001/REC-SVG-20010904/DTD/svg10.dtd">
<svg version="1.0" xmlns="http://www.w3.org/2000/svg"
 width="1620.000000pt" height="636.000000pt" viewBox="0 0 1620.000000 636.000000"
 preserveAspectRatio="xMidYMid meet">

<g transform="translate(0.000000,636.000000) scale(0.100000,-0.100000)"
fill="#000000" stroke="none">
<path d="M3969 4062 l-56 -3 -18 -77 c-10 -42 -22 -81 -27 -86 -4 -6 -8 -22
-8 -37 0 -15 -9 -65 -21 -111 -12 -46 -27 -108 -33 -138 -7 -30 -15 -62 -18
-70 -4 -8 -9 -41 -11 -72 -3 -32 -9 -63 -14 -70 -9 -15 -39 -146 -60 -265 -5
-31 -3 -33 23 -33 51 0 57 -11 52 -83 -3 -36 -9 -71 -14 -78 -9 -13 -24 -78
-43 -179 -5 -25 -17 -70 -26 -100 -9 -30 -19 -68 -21 -85 -7 -45 -35 -167 -44
-191 -5 -11 -5 -26 -1 -33 5 -8 158 -11 605 -9 l598 3 18 60 c9 33 25 96 35
140 36 166 33 160 78 184 78 40 240 151 221 151 -5 0 -36 -9 -69 -19 -70 -22
-89 -18 -81 15 4 13 3 24 -2 24 -5 0 -49 -28 -98 -62 l-89 -63 -267 1 c-147 0
-270 3 -274 6 -5 6 4 55 37 183 5 22 11 58 12 80 2 40 2 40 -38 45 -49 6 -53
21 -31 99 15 54 35 142 57 246 6 28 17 72 25 99 8 26 14 61 14 77 0 15 4 30 9
33 5 4 12 30 16 59 3 28 10 61 15 72 5 11 14 45 20 75 6 30 15 75 20 100 5 25
12 59 15 76 6 27 4 32 -17 37 -23 6 -380 5 -489 -1z"/>
<path d="M8895 4063 c-186 -12 -386 -83 -505 -180 -52 -42 -180 -175 -180
-187 0 -5 -6 -17 -14 -25 -32 -36 -94 -181 -110 -256 -9 -44 -21 -99 -26 -123
-16 -70 -14 -98 27 -302 8 -41 19 -84 24 -95 5 -11 13 -31 19 -45 5 -14 23
-47 40 -75 16 -27 33 -57 37 -65 23 -49 169 -190 233 -225 19 -11 37 -22 40
-25 3 -3 26 -15 51 -28 220 -107 493 -120 725 -34 103 37 234 119 234 146 0 9
-34 52 -100 126 -17 19 -40 50 -53 67 -26 39 -45 41 -95 9 -85 -53 -158 -71
-292 -71 -144 0 -192 13 -292 77 -64 41 -148 123 -148 144 0 6 -7 17 -15 24
-8 7 -15 21 -15 31 0 11 -4 19 -10 19 -5 0 -12 17 -16 38 -4 20 -11 43 -17 50
-18 22 -13 249 7 307 69 208 223 339 427 365 122 16 215 2 326 -51 l87 -41 38
41 39 41 214 0 215 0 2 -677 3 -678 150 -3 c83 -1 160 0 173 3 l22 5 0 675 0
675 173 -2 172 -3 3 -677 2 -678 159 0 c120 0 161 3 170 13 7 9 12 103 13 278
l3 264 122 3 121 3 44 -68 c105 -159 159 -244 213 -333 32 -52 70 -110 83
-127 l24 -33 162 0 c88 0 167 4 174 9 12 7 12 12 0 32 -7 13 -15 26 -18 29 -3
3 -26 37 -51 75 -25 39 -64 99 -87 134 -23 35 -42 67 -42 71 0 5 -3 10 -8 12
-4 2 -35 46 -69 98 -34 52 -67 100 -72 107 -15 16 -22 56 -14 69 5 6 26 22 48
36 36 23 71 56 164 156 17 18 35 31 40 28 4 -3 11 -53 14 -112 3 -58 10 -111
15 -117 5 -7 12 -28 16 -48 8 -46 83 -209 96 -209 3 0 14 -14 25 -32 37 -63
150 -170 235 -223 440 -272 1027 -114 1250 335 53 106 61 131 85 265 23 128
21 168 -22 355 -14 59 -50 152 -74 190 -5 8 -12 22 -16 30 -4 8 -9 17 -12 20
-4 3 -19 25 -35 49 -63 98 -209 212 -341 268 -403 172 -860 41 -1093 -312 -15
-22 -29 -42 -32 -45 -12 -12 -40 -73 -40 -87 0 -8 -6 -21 -14 -28 -20 -20 -30
-3 -44 73 -14 83 -70 197 -127 260 -58 64 -148 121 -250 158 l-80 29 -919 3
c-982 3 -936 5 -936 -45 0 -29 -15 -29 -77 -2 -108 48 -280 79 -398 72z m3845
-366 c62 -25 88 -44 150 -107 76 -76 130 -164 130 -211 0 -14 6 -31 13 -37 8
-9 12 -53 12 -147 0 -94 -4 -138 -12 -146 -7 -7 -13 -22 -13 -32 0 -43 -69
-158 -130 -215 -95 -89 -208 -132 -345 -132 -145 0 -262 48 -363 149 -117 118
-172 347 -127 526 50 198 212 356 394 385 95 15 206 2 291 -33z m-1547 1 c110
-45 142 -99 142 -238 0 -78 -4 -100 -20 -125 -56 -84 -114 -105 -297 -112 -75
-3 -148 -3 -162 1 l-26 6 0 239 c0 131 3 241 7 244 3 4 73 7 155 7 130 0 156
-3 201 -22z"/>
<path d="M5478 4046 c-10 -7 -18 -25 -18 -39 0 -19 -8 -31 -27 -41 -24 -12
-26 -15 -10 -21 23 -10 21 -22 -5 -31 l-23 -7 23 -8 c25 -9 30 -29 7 -29 -8 0
-15 -4 -15 -9 0 -5 7 -11 15 -15 22 -8 18 -23 -7 -30 l-23 -7 23 -9 c25 -11
21 -30 -6 -30 -20 -1 -180 -151 -207 -195 -16 -25 -19 -52 -19 -172 -1 -163 3
-173 76 -182 l43 -6 5 -127 c4 -100 9 -131 21 -144 13 -13 21 -14 38 -5 19 11
21 21 23 144 l3 132 130 0 130 0 5 -132 c6 -146 12 -164 55 -145 25 12 25 12
25 147 l0 135 30 0 c37 0 77 18 86 39 14 35 17 213 3 269 -12 51 -21 64 -107
148 -63 61 -105 94 -125 98 -29 6 -29 7 -12 20 15 11 17 17 7 28 -8 11 -9 17
0 26 8 8 8 15 -1 26 -9 11 -9 16 0 22 9 5 7 11 -6 21 -18 13 -18 13 1 27 18
14 18 15 -7 25 -19 7 -28 19 -33 44 -9 47 -58 64 -98 33z"/>
<path d="M6166 4025 c-3 -9 -6 -283 -6 -609 -1 -326 -4 -596 -7 -599 -8 -8
-37 8 -99 55 -28 21 -56 38 -62 38 -7 0 -12 -13 -12 -30 0 -16 -4 -30 -8 -30
-5 0 -42 11 -82 25 -40 14 -75 23 -77 21 -2 -2 13 -14 34 -27 21 -13 78 -49
126 -81 49 -32 93 -56 98 -52 5 3 9 14 9 25 0 14 7 19 29 19 16 0 34 -6 40
-13 7 -9 12 -85 13 -208 l3 -194 980 -2 c539 -2 986 1 993 6 10 6 14 47 15
157 l2 149 -355 5 c-330 5 -355 6 -354 23 0 9 1 91 2 182 l2 165 248 0 c136 0
253 4 260 8 9 7 12 44 10 153 l-3 144 -260 5 c-143 3 -260 7 -260 8 0 1 1 80
1 175 l2 172 338 5 339 5 3 158 3 157 -513 -2 -513 -3 -3 -664 c-1 -470 -5
-668 -13 -678 -9 -10 -69 -13 -289 -13 -220 0 -280 3 -289 13 -8 10 -12 208
-13 678 l-3 664 -161 3 c-139 2 -163 0 -168 -13z"/>
<path d="M5760 2804 c0 -8 14 -42 30 -76 39 -78 39 -88 -5 -88 -41 0 -39 -9
15 -70 17 -19 48 -55 68 -80 55 -66 91 -102 101 -98 4 2 -4 30 -20 63 -37 79
-37 95 1 95 32 0 36 4 20 23 -26 32 -78 97 -100 126 -14 18 -31 39 -37 46 -7
8 -13 16 -13 20 0 6 -50 55 -56 55 -2 0 -4 -7 -4 -16z"/>
<path d="M5230 2789 c-8 -12 -20 -27 -25 -33 -11 -11 -128 -163 -154 -197 -12
-18 -11 -19 23 -19 40 0 44 -10 22 -52 -8 -15 -17 -42 -21 -60 l-7 -33 29 31
c114 125 172 194 173 207 0 4 -16 7 -35 7 -34 0 -49 20 -25 35 6 3 10 17 10
29 0 13 6 29 14 35 14 12 28 71 16 71 -3 0 -12 -10 -20 -21z"/>
</g>
</svg>
